<svg width="423" height="428" viewBox="0 0 423 428" fill="none" xmlns="http://www.w3.org/2000/svg">
    <path d="M119.04 410.323C144.014 421.471 171.647 427.7 200.767 427.7C311.654 427.7 401.554 337.82 401.554 226.933C401.554 190.989 392.072 157.286 375.529 128.106L119.04 410.323Z" fill="#152B81"/>
    <path d="M302.47 53.8236C272.636 36.2483 237.921 26.1514 200.787 26.1514C89.9 26.1514 0 116.031 0 226.939C0 252.111 4.66163 276.173 13.1319 298.39L302.47 53.8236Z" fill="#152B81"/>
    <path d="M83.6341 392.846L423 0L23.747 333.415C11.9442 341.152 4.08887 354.462 4.08887 369.578C4.08887 393.461 23.4297 412.782 47.2734 412.782C58.1042 412.782 67.9829 408.775 75.5605 402.169C78.655 399.472 81.3925 396.318 83.6341 392.846Z" fill="#5A9CD7"/>
</svg>
